<?xml version="1.0" encoding="utf-8"?>
<!-- Generator: Adobe Illustrator 25.1.0, SVG Export Plug-In . SVG Version: 6.00 Build 0)  -->
<svg version="1.1" id="Layer_1" xmlns="http://www.w3.org/2000/svg" xmlns:xlink="http://www.w3.org/1999/xlink" x="0px" y="0px"
	 viewBox="0 0 512 512" style="enable-background:new 0 0 512 512;" xml:space="preserve">
<style type="text/css">
	.st0{fill:#969696;}
</style>
<g transform="translate(0.000000,512.000000) scale(0.100000,-0.100000)">
	<path class="st0" d="M2430,5114c-318-41-573-161-793-373c-487-469-539-1230-121-1767c401-516,1135-662,1699-337
		c498,287,755,845,649,1406c-99,519-517,941-1037,1048C2728,5111,2509,5124,2430,5114z"/>
	<path class="st0" d="M1490,2350c-443-78-849-353-1102-746c-53-83-118-224-118-257c0-66,190-334,370-521c439-457,981-729,1605-807
		c130-17,492-16,620,0c506,65,956,254,1345,565c121,96,358,341,452,466c105,141,188,275,188,306c0,30-56,153-105,229
		c-171,267-409,485-676,618c-195,97-438,164-561,155c-42-3-70-13-110-38c-144-91-190-116-270-151c-199-87-402-125-618-116
		c-276,11-508,85-739,237c-50,33-103,62-118,66c-16,3-35,7-43,9S1548,2360,1490,2350z"/>
</g>
</svg>
